<svg version="1.2" xmlns="http://www.w3.org/2000/svg" viewBox="0 0 100 125" width="100" height="125">
	<title>noun-computer-programming-721899-svg</title>
	<style>
		.s0 { fill: #000000 } 
	</style>
	<path id="Layer" fill-rule="evenodd" class="s0" d="m55 80.5v7h10v3h-30v-3h10v-7h-40v-60h90v60zm37-4v-53h-84v53z"/>
	<g id="Layer">
		<path id="Layer" fill-rule="evenodd" class="s0" d="m32 40h36v24h-36zm25.8 12l-4.5 4.5 0.6 0.6 5.1-5.1-5.1-5.1-0.6 0.6zm-9.3 6.2l0.9 0.2 2.1-12.5-0.9-0.2zm-7.5-6.2l5.2 5.1 0.6-0.6-4.5-4.5 4.4-4.5-0.6-0.6z"/>
		<path id="Layer" fill-rule="evenodd" class="s0" d="m68 36v3.2h-36v-3.2zm-1.2 1.6c0-0.4-0.4-0.8-0.8-0.8-0.4 0-0.8 0.4-0.8 0.8 0 0.4 0.4 0.8 0.8 0.8 0.4 0 0.8-0.4 0.8-0.8z"/>
	</g>
</svg>